<mxfile host="app.diagrams.net" modified="2021-04-23T16:13:46.653Z" agent="5.0 (Windows NT 10.0; Win64; x64) AppleWebKit/537.36 (KHTML, like Gecko) Chrome/88.0.4324.182 Safari/537.36" etag="TAqyD19QE5Y4JLcvqMJr" version="14.6.3" type="github">
  <diagram id="R2lEEEUBdFMjLlhIrx00" name="Page-1">
    <mxGraphModel dx="2805" dy="2193" grid="1" gridSize="10" guides="1" tooltips="1" connect="1" arrows="1" fold="1" page="1" pageScale="1" pageWidth="850" pageHeight="1100" math="0" shadow="0" extFonts="Permanent Marker^https://fonts.googleapis.com/css?family=Permanent+Marker">
      <root>
        <mxCell id="0" />
        <mxCell id="1" parent="0" />
        <mxCell id="bAMYBOGjvjIWCHxzS1RD-1" value="TEAM_USECASE_REG_INFO" style="shape=table;startSize=30;container=1;collapsible=1;childLayout=tableLayout;fixedRows=1;rowLines=0;fontStyle=1;align=center;resizeLast=1;fontSize=11;" vertex="1" parent="1">
          <mxGeometry x="800" y="110" width="190" height="170" as="geometry" />
        </mxCell>
        <mxCell id="bAMYBOGjvjIWCHxzS1RD-2" value="" style="shape=partialRectangle;collapsible=0;dropTarget=0;pointerEvents=0;fillColor=none;points=[[0,0.5],[1,0.5]];portConstraint=eastwest;top=0;left=0;right=0;bottom=1;" vertex="1" parent="bAMYBOGjvjIWCHxzS1RD-1">
          <mxGeometry y="30" width="190" height="30" as="geometry" />
        </mxCell>
        <mxCell id="bAMYBOGjvjIWCHxzS1RD-3" value="PK" style="shape=partialRectangle;overflow=hidden;connectable=0;fillColor=none;top=0;left=0;bottom=0;right=0;fontStyle=1;" vertex="1" parent="bAMYBOGjvjIWCHxzS1RD-2">
          <mxGeometry width="30" height="30" as="geometry" />
        </mxCell>
        <mxCell id="bAMYBOGjvjIWCHxzS1RD-4" value="TEAM_USECASE_NAME" style="shape=partialRectangle;overflow=hidden;connectable=0;fillColor=none;top=0;left=0;bottom=0;right=0;align=left;spacingLeft=6;fontStyle=5;" vertex="1" parent="bAMYBOGjvjIWCHxzS1RD-2">
          <mxGeometry x="30" width="160" height="30" as="geometry" />
        </mxCell>
        <mxCell id="bAMYBOGjvjIWCHxzS1RD-5" value="" style="shape=partialRectangle;collapsible=0;dropTarget=0;pointerEvents=0;fillColor=none;points=[[0,0.5],[1,0.5]];portConstraint=eastwest;top=0;left=0;right=0;bottom=0;" vertex="1" parent="bAMYBOGjvjIWCHxzS1RD-1">
          <mxGeometry y="60" width="190" height="110" as="geometry" />
        </mxCell>
        <mxCell id="bAMYBOGjvjIWCHxzS1RD-6" value="&#xa;&#xa;" style="shape=partialRectangle;overflow=hidden;connectable=0;fillColor=none;top=0;left=0;bottom=0;right=0;" vertex="1" parent="bAMYBOGjvjIWCHxzS1RD-5">
          <mxGeometry width="30" height="110" as="geometry" />
        </mxCell>
        <mxCell id="bAMYBOGjvjIWCHxzS1RD-7" value="OWNER&#xa;&#xa;AD_GROUP&#xa;&#xa;WORKING_BUCKET&#xa;&#xa;WORKING_DATASET" style="shape=partialRectangle;overflow=hidden;connectable=0;fillColor=none;top=0;left=0;bottom=0;right=0;align=left;spacingLeft=6;" vertex="1" parent="bAMYBOGjvjIWCHxzS1RD-5">
          <mxGeometry x="30" width="160" height="110" as="geometry" />
        </mxCell>
        <mxCell id="bAMYBOGjvjIWCHxzS1RD-8" value="CI_PIPELINE_BASE_INFO" style="shape=table;startSize=30;container=1;collapsible=1;childLayout=tableLayout;fixedRows=1;rowLines=0;fontStyle=1;align=center;resizeLast=1;" vertex="1" parent="1">
          <mxGeometry x="115" y="-95" width="185" height="220" as="geometry" />
        </mxCell>
        <mxCell id="bAMYBOGjvjIWCHxzS1RD-9" value="" style="shape=partialRectangle;collapsible=0;dropTarget=0;pointerEvents=0;fillColor=none;points=[[0,0.5],[1,0.5]];portConstraint=eastwest;top=0;left=0;right=0;bottom=1;" vertex="1" parent="bAMYBOGjvjIWCHxzS1RD-8">
          <mxGeometry y="30" width="185" height="30" as="geometry" />
        </mxCell>
        <mxCell id="bAMYBOGjvjIWCHxzS1RD-10" value="PK" style="shape=partialRectangle;overflow=hidden;connectable=0;fillColor=none;top=0;left=0;bottom=0;right=0;fontStyle=1;" vertex="1" parent="bAMYBOGjvjIWCHxzS1RD-9">
          <mxGeometry width="30" height="30" as="geometry" />
        </mxCell>
        <mxCell id="bAMYBOGjvjIWCHxzS1RD-11" value="PIPELINE_ID" style="shape=partialRectangle;overflow=hidden;connectable=0;fillColor=none;top=0;left=0;bottom=0;right=0;align=left;spacingLeft=6;fontStyle=5;" vertex="1" parent="bAMYBOGjvjIWCHxzS1RD-9">
          <mxGeometry x="30" width="155" height="30" as="geometry" />
        </mxCell>
        <mxCell id="bAMYBOGjvjIWCHxzS1RD-12" value="" style="shape=partialRectangle;collapsible=0;dropTarget=0;pointerEvents=0;fillColor=none;points=[[0,0.5],[1,0.5]];portConstraint=eastwest;top=0;left=0;right=0;bottom=0;" vertex="1" parent="bAMYBOGjvjIWCHxzS1RD-8">
          <mxGeometry y="60" width="185" height="160" as="geometry" />
        </mxCell>
        <mxCell id="bAMYBOGjvjIWCHxzS1RD-13" value="FK1&#xa;&#xa;FK2&#xa;&#xa;&#xa;&#xa;&#xa;&#xa;&#xa;&#xa;" style="shape=partialRectangle;overflow=hidden;connectable=0;fillColor=none;top=0;left=0;bottom=0;right=0;" vertex="1" parent="bAMYBOGjvjIWCHxzS1RD-12">
          <mxGeometry width="30" height="160" as="geometry" />
        </mxCell>
        <mxCell id="bAMYBOGjvjIWCHxzS1RD-14" value="TEAM_USECASE_NAME&#xa;&#xa;USER_ID&#xa;&#xa;PIPELINE_NAME&#xa;&#xa;BRANCH_NAME&#xa;&#xa;PIPELINE_RUN_TIMES&#xa;&#xa;LAST_RUN_TIME" style="shape=partialRectangle;overflow=hidden;connectable=0;fillColor=none;top=0;left=0;bottom=0;right=0;align=left;spacingLeft=6;" vertex="1" parent="bAMYBOGjvjIWCHxzS1RD-12">
          <mxGeometry x="30" width="155" height="160" as="geometry" />
        </mxCell>
        <mxCell id="bAMYBOGjvjIWCHxzS1RD-18" value="" style="edgeStyle=entityRelationEdgeStyle;fontSize=12;html=1;endArrow=ERzeroToMany;startArrow=ERmandOne;fontColor=#000000;entryX=1.021;entryY=0.092;entryDx=0;entryDy=0;entryPerimeter=0;" edge="1" parent="1" source="bAMYBOGjvjIWCHxzS1RD-2" target="C-vyLk0tnHw3VtMMgP7b-27">
          <mxGeometry width="100" height="100" relative="1" as="geometry">
            <mxPoint x="10" y="395" as="sourcePoint" />
            <mxPoint x="740" y="-20" as="targetPoint" />
          </mxGeometry>
        </mxCell>
        <mxCell id="bAMYBOGjvjIWCHxzS1RD-19" value="CI_PIPELINE_RUN_INFO" style="shape=table;startSize=30;container=1;collapsible=1;childLayout=tableLayout;fixedRows=1;rowLines=0;fontStyle=1;align=center;resizeLast=1;" vertex="1" parent="1">
          <mxGeometry x="1050" y="-95" width="160" height="340" as="geometry" />
        </mxCell>
        <mxCell id="bAMYBOGjvjIWCHxzS1RD-20" value="" style="shape=partialRectangle;collapsible=0;dropTarget=0;pointerEvents=0;fillColor=none;points=[[0,0.5],[1,0.5]];portConstraint=eastwest;top=0;left=0;right=0;bottom=1;" vertex="1" parent="bAMYBOGjvjIWCHxzS1RD-19">
          <mxGeometry y="30" width="160" height="30" as="geometry" />
        </mxCell>
        <mxCell id="bAMYBOGjvjIWCHxzS1RD-21" value="PK" style="shape=partialRectangle;overflow=hidden;connectable=0;fillColor=none;top=0;left=0;bottom=0;right=0;fontStyle=1;" vertex="1" parent="bAMYBOGjvjIWCHxzS1RD-20">
          <mxGeometry width="30" height="30" as="geometry" />
        </mxCell>
        <mxCell id="bAMYBOGjvjIWCHxzS1RD-22" value="RUN_ID" style="shape=partialRectangle;overflow=hidden;connectable=0;fillColor=none;top=0;left=0;bottom=0;right=0;align=left;spacingLeft=6;fontStyle=5;" vertex="1" parent="bAMYBOGjvjIWCHxzS1RD-20">
          <mxGeometry x="30" width="130" height="30" as="geometry" />
        </mxCell>
        <mxCell id="bAMYBOGjvjIWCHxzS1RD-23" value="" style="shape=partialRectangle;collapsible=0;dropTarget=0;pointerEvents=0;fillColor=none;points=[[0,0.5],[1,0.5]];portConstraint=eastwest;top=0;left=0;right=0;bottom=0;" vertex="1" parent="bAMYBOGjvjIWCHxzS1RD-19">
          <mxGeometry y="60" width="160" height="280" as="geometry" />
        </mxCell>
        <mxCell id="bAMYBOGjvjIWCHxzS1RD-24" value="FK1&#xa;&#xa;&#xa;&#xa;&#xa;&#xa;&#xa;&#xa;&#xa;&#xa;&#xa;&#xa;&#xa;&#xa;&#xa;&#xa;&#xa;&#xa;" style="shape=partialRectangle;overflow=hidden;connectable=0;fillColor=none;top=0;left=0;bottom=0;right=0;" vertex="1" parent="bAMYBOGjvjIWCHxzS1RD-23">
          <mxGeometry width="30" height="280" as="geometry" />
        </mxCell>
        <mxCell id="bAMYBOGjvjIWCHxzS1RD-25" value="PIPELINE_ID&#xa;&#xa;VERSION&#xa;&#xa;STEP_NUM&#xa;&#xa;STATUS&#xa;&#xa;REQUEST_PACKAGE&#xa;&#xa;MODEL_ZIP&#xa;&#xa;START_TIME&#xa;&#xa;END_TIME&#xa;&#xa;DESCRIPTION&#xa;&#xa;COMMENT" style="shape=partialRectangle;overflow=hidden;connectable=0;fillColor=none;top=0;left=0;bottom=0;right=0;align=left;spacingLeft=6;" vertex="1" parent="bAMYBOGjvjIWCHxzS1RD-23">
          <mxGeometry x="30" width="130" height="280" as="geometry" />
        </mxCell>
        <mxCell id="bAMYBOGjvjIWCHxzS1RD-29" value="CD_PIPELINE_BASE_INFO" style="shape=table;startSize=30;container=1;collapsible=1;childLayout=tableLayout;fixedRows=1;rowLines=0;fontStyle=1;align=center;resizeLast=1;" vertex="1" parent="1">
          <mxGeometry x="350" y="150" width="180" height="260" as="geometry" />
        </mxCell>
        <mxCell id="bAMYBOGjvjIWCHxzS1RD-30" value="" style="shape=partialRectangle;collapsible=0;dropTarget=0;pointerEvents=0;fillColor=none;points=[[0,0.5],[1,0.5]];portConstraint=eastwest;top=0;left=0;right=0;bottom=1;" vertex="1" parent="bAMYBOGjvjIWCHxzS1RD-29">
          <mxGeometry y="30" width="180" height="30" as="geometry" />
        </mxCell>
        <mxCell id="bAMYBOGjvjIWCHxzS1RD-31" value="PK" style="shape=partialRectangle;overflow=hidden;connectable=0;fillColor=none;top=0;left=0;bottom=0;right=0;fontStyle=1;" vertex="1" parent="bAMYBOGjvjIWCHxzS1RD-30">
          <mxGeometry width="30" height="30" as="geometry" />
        </mxCell>
        <mxCell id="bAMYBOGjvjIWCHxzS1RD-32" value="PIPELINE_ID" style="shape=partialRectangle;overflow=hidden;connectable=0;fillColor=none;top=0;left=0;bottom=0;right=0;align=left;spacingLeft=6;fontStyle=5;" vertex="1" parent="bAMYBOGjvjIWCHxzS1RD-30">
          <mxGeometry x="30" width="150" height="30" as="geometry" />
        </mxCell>
        <mxCell id="bAMYBOGjvjIWCHxzS1RD-33" value="" style="shape=partialRectangle;collapsible=0;dropTarget=0;pointerEvents=0;fillColor=none;points=[[0,0.5],[1,0.5]];portConstraint=eastwest;top=0;left=0;right=0;bottom=0;" vertex="1" parent="bAMYBOGjvjIWCHxzS1RD-29">
          <mxGeometry y="60" width="180" height="200" as="geometry" />
        </mxCell>
        <mxCell id="bAMYBOGjvjIWCHxzS1RD-34" value="FK1&#xa;&#xa;&#xa;&#xa;&#xa;&#xa;&#xa;&#xa;&#xa;&#xa;&#xa;&#xa;" style="shape=partialRectangle;overflow=hidden;connectable=0;fillColor=none;top=0;left=0;bottom=0;right=0;" vertex="1" parent="bAMYBOGjvjIWCHxzS1RD-33">
          <mxGeometry width="30" height="200" as="geometry" />
        </mxCell>
        <mxCell id="bAMYBOGjvjIWCHxzS1RD-35" value="CI_PIPELINE_ID&#xa;&#xa;PIPELINE_RUN_TIMES&#xa;&#xa;LAST_RUN_TIME&#xa;&#xa;LINE_MANAGER&#xa;&#xa;BUSINESS_SPONSOR&#xa;&#xa;ATTACHMENT_PATH&#xa;&#xa;SCHEDULE_TIME" style="shape=partialRectangle;overflow=hidden;connectable=0;fillColor=none;top=0;left=0;bottom=0;right=0;align=left;spacingLeft=6;" vertex="1" parent="bAMYBOGjvjIWCHxzS1RD-33">
          <mxGeometry x="30" width="150" height="200" as="geometry" />
        </mxCell>
        <mxCell id="bAMYBOGjvjIWCHxzS1RD-39" value="CI_PIPELINE_RUN_SUB_INFO" style="shape=table;startSize=30;container=1;collapsible=1;childLayout=tableLayout;fixedRows=1;rowLines=0;fontStyle=1;align=center;resizeLast=1;" vertex="1" parent="1">
          <mxGeometry x="-120" y="-200" width="180" height="365" as="geometry" />
        </mxCell>
        <mxCell id="bAMYBOGjvjIWCHxzS1RD-40" value="" style="shape=partialRectangle;collapsible=0;dropTarget=0;pointerEvents=0;fillColor=none;points=[[0,0.5],[1,0.5]];portConstraint=eastwest;top=0;left=0;right=0;bottom=1;" vertex="1" parent="bAMYBOGjvjIWCHxzS1RD-39">
          <mxGeometry y="30" width="180" height="30" as="geometry" />
        </mxCell>
        <mxCell id="bAMYBOGjvjIWCHxzS1RD-41" value="PK" style="shape=partialRectangle;overflow=hidden;connectable=0;fillColor=none;top=0;left=0;bottom=0;right=0;fontStyle=1;" vertex="1" parent="bAMYBOGjvjIWCHxzS1RD-40">
          <mxGeometry width="30" height="30" as="geometry" />
        </mxCell>
        <mxCell id="bAMYBOGjvjIWCHxzS1RD-42" value="STEP_ID" style="shape=partialRectangle;overflow=hidden;connectable=0;fillColor=none;top=0;left=0;bottom=0;right=0;align=left;spacingLeft=6;fontStyle=5;" vertex="1" parent="bAMYBOGjvjIWCHxzS1RD-40">
          <mxGeometry x="30" width="150" height="30" as="geometry" />
        </mxCell>
        <mxCell id="bAMYBOGjvjIWCHxzS1RD-43" value="" style="shape=partialRectangle;collapsible=0;dropTarget=0;pointerEvents=0;fillColor=none;points=[[0,0.5],[1,0.5]];portConstraint=eastwest;top=0;left=0;right=0;bottom=0;" vertex="1" parent="bAMYBOGjvjIWCHxzS1RD-39">
          <mxGeometry y="60" width="180" height="305" as="geometry" />
        </mxCell>
        <mxCell id="bAMYBOGjvjIWCHxzS1RD-44" value="FK1&#xa;&#xa;FK2&#xa;&#xa;&#xa;&#xa;&#xa;&#xa;&#xa;&#xa;&#xa;&#xa;&#xa;&#xa;&#xa;&#xa;&#xa;&#xa;&#xa;&#xa;" style="shape=partialRectangle;overflow=hidden;connectable=0;fillColor=none;top=0;left=0;bottom=0;right=0;" vertex="1" parent="bAMYBOGjvjIWCHxzS1RD-43">
          <mxGeometry width="30" height="305" as="geometry" />
        </mxCell>
        <mxCell id="bAMYBOGjvjIWCHxzS1RD-45" value="RUN_ID&#xa;&#xa;PIPELINE_ID&#xa;&#xa;STEP_NAME&#xa;&#xa;STEP_CLASS&#xa;&#xa;STEP_ORDER&#xa;&#xa;MAIN_PY_GITHUB&#xa;&#xa;MAIN_PY_STORAGE&#xa;&#xa;STATUS&#xa;&#xa;LOGS_PATH&#xa;&#xa;START_TIME&#xa;&#xa;END_TIME" style="shape=partialRectangle;overflow=hidden;connectable=0;fillColor=none;top=0;left=0;bottom=0;right=0;align=left;spacingLeft=6;" vertex="1" parent="bAMYBOGjvjIWCHxzS1RD-43">
          <mxGeometry x="30" width="150" height="305" as="geometry" />
        </mxCell>
        <mxCell id="bAMYBOGjvjIWCHxzS1RD-69" value="CD_MODEL_BASE_INFO" style="shape=table;startSize=30;container=1;collapsible=1;childLayout=tableLayout;fixedRows=1;rowLines=0;fontStyle=1;align=center;resizeLast=1;" vertex="1" parent="1">
          <mxGeometry x="-190" y="250" width="250" height="190" as="geometry" />
        </mxCell>
        <mxCell id="bAMYBOGjvjIWCHxzS1RD-70" value="" style="shape=partialRectangle;collapsible=0;dropTarget=0;pointerEvents=0;fillColor=none;points=[[0,0.5],[1,0.5]];portConstraint=eastwest;top=0;left=0;right=0;bottom=1;" vertex="1" parent="bAMYBOGjvjIWCHxzS1RD-69">
          <mxGeometry y="30" width="250" height="30" as="geometry" />
        </mxCell>
        <mxCell id="bAMYBOGjvjIWCHxzS1RD-71" value="PK" style="shape=partialRectangle;overflow=hidden;connectable=0;fillColor=none;top=0;left=0;bottom=0;right=0;fontStyle=1;" vertex="1" parent="bAMYBOGjvjIWCHxzS1RD-70">
          <mxGeometry width="30" height="30" as="geometry" />
        </mxCell>
        <mxCell id="bAMYBOGjvjIWCHxzS1RD-72" value="MODEL_ID" style="shape=partialRectangle;overflow=hidden;connectable=0;fillColor=none;top=0;left=0;bottom=0;right=0;align=left;spacingLeft=6;fontStyle=5;" vertex="1" parent="bAMYBOGjvjIWCHxzS1RD-70">
          <mxGeometry x="30" width="220" height="30" as="geometry" />
        </mxCell>
        <mxCell id="bAMYBOGjvjIWCHxzS1RD-73" value="" style="shape=partialRectangle;collapsible=0;dropTarget=0;pointerEvents=0;fillColor=none;points=[[0,0.5],[1,0.5]];portConstraint=eastwest;top=0;left=0;right=0;bottom=0;" vertex="1" parent="bAMYBOGjvjIWCHxzS1RD-69">
          <mxGeometry y="60" width="250" height="120" as="geometry" />
        </mxCell>
        <mxCell id="bAMYBOGjvjIWCHxzS1RD-74" value="FK1&#xa;&#xa;&#xa;&#xa;&#xa;&#xa;" style="shape=partialRectangle;overflow=hidden;connectable=0;fillColor=none;top=0;left=0;bottom=0;right=0;" vertex="1" parent="bAMYBOGjvjIWCHxzS1RD-73">
          <mxGeometry width="30" height="120" as="geometry" />
        </mxCell>
        <mxCell id="bAMYBOGjvjIWCHxzS1RD-75" value="CD_PIPELINE_ID&#xa;&#xa;MODEL_NAME&#xa;&#xa;MODEL_RUN_TIMES&#xa;&#xa;LAST_RUN_TIME" style="shape=partialRectangle;overflow=hidden;connectable=0;fillColor=none;top=0;left=0;bottom=0;right=0;align=left;spacingLeft=6;" vertex="1" parent="bAMYBOGjvjIWCHxzS1RD-73">
          <mxGeometry x="30" width="220" height="120" as="geometry" />
        </mxCell>
        <mxCell id="bAMYBOGjvjIWCHxzS1RD-109" value="CD_PIPELINE_RUN_SUB_INFO" style="shape=table;startSize=30;container=1;collapsible=1;childLayout=tableLayout;fixedRows=1;rowLines=0;fontStyle=1;align=center;resizeLast=1;" vertex="1" parent="1">
          <mxGeometry x="1060" y="290" width="180" height="365" as="geometry" />
        </mxCell>
        <mxCell id="bAMYBOGjvjIWCHxzS1RD-110" value="" style="shape=partialRectangle;collapsible=0;dropTarget=0;pointerEvents=0;fillColor=none;points=[[0,0.5],[1,0.5]];portConstraint=eastwest;top=0;left=0;right=0;bottom=1;" vertex="1" parent="bAMYBOGjvjIWCHxzS1RD-109">
          <mxGeometry y="30" width="180" height="30" as="geometry" />
        </mxCell>
        <mxCell id="bAMYBOGjvjIWCHxzS1RD-111" value="PK" style="shape=partialRectangle;overflow=hidden;connectable=0;fillColor=none;top=0;left=0;bottom=0;right=0;fontStyle=1;" vertex="1" parent="bAMYBOGjvjIWCHxzS1RD-110">
          <mxGeometry width="30" height="30" as="geometry" />
        </mxCell>
        <mxCell id="bAMYBOGjvjIWCHxzS1RD-112" value="STEP_ID" style="shape=partialRectangle;overflow=hidden;connectable=0;fillColor=none;top=0;left=0;bottom=0;right=0;align=left;spacingLeft=6;fontStyle=5;" vertex="1" parent="bAMYBOGjvjIWCHxzS1RD-110">
          <mxGeometry x="30" width="150" height="30" as="geometry" />
        </mxCell>
        <mxCell id="bAMYBOGjvjIWCHxzS1RD-113" value="" style="shape=partialRectangle;collapsible=0;dropTarget=0;pointerEvents=0;fillColor=none;points=[[0,0.5],[1,0.5]];portConstraint=eastwest;top=0;left=0;right=0;bottom=0;" vertex="1" parent="bAMYBOGjvjIWCHxzS1RD-109">
          <mxGeometry y="60" width="180" height="305" as="geometry" />
        </mxCell>
        <mxCell id="bAMYBOGjvjIWCHxzS1RD-114" value="FK1&#xa;&#xa;FK2&#xa;&#xa;&#xa;&#xa;&#xa;&#xa;&#xa;&#xa;&#xa;&#xa;&#xa;&#xa;&#xa;&#xa;&#xa;&#xa;&#xa;&#xa;" style="shape=partialRectangle;overflow=hidden;connectable=0;fillColor=none;top=0;left=0;bottom=0;right=0;" vertex="1" parent="bAMYBOGjvjIWCHxzS1RD-113">
          <mxGeometry width="30" height="305" as="geometry" />
        </mxCell>
        <mxCell id="bAMYBOGjvjIWCHxzS1RD-115" value="RUN_ID&#xa;&#xa;PIPELINE_ID&#xa;&#xa;STEP_NAME&#xa;&#xa;STEP_CLASS&#xa;&#xa;STEP_ORDER&#xa;&#xa;MAIN_PY_GITHUB&#xa;&#xa;MAIN_PY_STORAGE&#xa;&#xa;STATUS&#xa;&#xa;LOGS_PATH&#xa;&#xa;START_TIME&#xa;&#xa;END_TIME" style="shape=partialRectangle;overflow=hidden;connectable=0;fillColor=none;top=0;left=0;bottom=0;right=0;align=left;spacingLeft=6;" vertex="1" parent="bAMYBOGjvjIWCHxzS1RD-113">
          <mxGeometry x="30" width="150" height="305" as="geometry" />
        </mxCell>
        <mxCell id="bAMYBOGjvjIWCHxzS1RD-116" value="CD_PIPELINE_RUN_INFO" style="shape=table;startSize=30;container=1;collapsible=1;childLayout=tableLayout;fixedRows=1;rowLines=0;fontStyle=1;align=center;resizeLast=1;" vertex="1" parent="1">
          <mxGeometry x="750" y="360" width="180" height="350" as="geometry" />
        </mxCell>
        <mxCell id="bAMYBOGjvjIWCHxzS1RD-117" value="" style="shape=partialRectangle;collapsible=0;dropTarget=0;pointerEvents=0;fillColor=none;points=[[0,0.5],[1,0.5]];portConstraint=eastwest;top=0;left=0;right=0;bottom=1;" vertex="1" parent="bAMYBOGjvjIWCHxzS1RD-116">
          <mxGeometry y="30" width="180" height="20" as="geometry" />
        </mxCell>
        <mxCell id="bAMYBOGjvjIWCHxzS1RD-118" value="PK" style="shape=partialRectangle;overflow=hidden;connectable=0;fillColor=none;top=0;left=0;bottom=0;right=0;fontStyle=1;" vertex="1" parent="bAMYBOGjvjIWCHxzS1RD-117">
          <mxGeometry width="30" height="20" as="geometry" />
        </mxCell>
        <mxCell id="bAMYBOGjvjIWCHxzS1RD-119" value="RUN_ID" style="shape=partialRectangle;overflow=hidden;connectable=0;fillColor=none;top=0;left=0;bottom=0;right=0;align=left;spacingLeft=6;fontStyle=5;" vertex="1" parent="bAMYBOGjvjIWCHxzS1RD-117">
          <mxGeometry x="30" width="150" height="20" as="geometry" />
        </mxCell>
        <mxCell id="bAMYBOGjvjIWCHxzS1RD-120" value="" style="shape=partialRectangle;collapsible=0;dropTarget=0;pointerEvents=0;fillColor=none;points=[[0,0.5],[1,0.5]];portConstraint=eastwest;top=0;left=0;right=0;bottom=0;" vertex="1" parent="bAMYBOGjvjIWCHxzS1RD-116">
          <mxGeometry y="50" width="180" height="300" as="geometry" />
        </mxCell>
        <mxCell id="bAMYBOGjvjIWCHxzS1RD-121" value="FK1&#xa;&#xa;&#xa;&#xa;&#xa;&#xa;&#xa;&#xa;&#xa;&#xa;&#xa;&#xa;&#xa;&#xa;&#xa;&#xa;&#xa;&#xa;&#xa;&#xa;FK2" style="shape=partialRectangle;overflow=hidden;connectable=0;fillColor=none;top=0;left=0;bottom=0;right=0;" vertex="1" parent="bAMYBOGjvjIWCHxzS1RD-120">
          <mxGeometry width="30" height="300" as="geometry" />
        </mxCell>
        <mxCell id="bAMYBOGjvjIWCHxzS1RD-122" value="PIPELINE_ID&#xa;&#xa;VERSION&#xa;&#xa;STEP_NUM&#xa;&#xa;STATUS&#xa;&#xa;REQUEST_PACKAGE&#xa;&#xa;MODEL_ZIP&#xa;&#xa;START_TIME&#xa;&#xa;END_TIME&#xa;&#xa;DESCRIPTION&#xa;&#xa;COMMENT&#xa;&#xa;CI_PIPELINE_RUN_ID" style="shape=partialRectangle;overflow=hidden;connectable=0;fillColor=none;top=0;left=0;bottom=0;right=0;align=left;spacingLeft=6;" vertex="1" parent="bAMYBOGjvjIWCHxzS1RD-120">
          <mxGeometry x="30" width="150" height="300" as="geometry" />
        </mxCell>
        <mxCell id="bAMYBOGjvjIWCHxzS1RD-123" value="CD_MODEL_RUN_INFO" style="shape=table;startSize=30;container=1;collapsible=1;childLayout=tableLayout;fixedRows=1;rowLines=0;fontStyle=1;align=center;resizeLast=1;" vertex="1" parent="1">
          <mxGeometry x="470" y="435" width="190" height="360" as="geometry" />
        </mxCell>
        <mxCell id="bAMYBOGjvjIWCHxzS1RD-124" value="" style="shape=partialRectangle;collapsible=0;dropTarget=0;pointerEvents=0;fillColor=none;points=[[0,0.5],[1,0.5]];portConstraint=eastwest;top=0;left=0;right=0;bottom=1;" vertex="1" parent="bAMYBOGjvjIWCHxzS1RD-123">
          <mxGeometry y="30" width="190" height="30" as="geometry" />
        </mxCell>
        <mxCell id="bAMYBOGjvjIWCHxzS1RD-125" value="PK" style="shape=partialRectangle;overflow=hidden;connectable=0;fillColor=none;top=0;left=0;bottom=0;right=0;fontStyle=1;" vertex="1" parent="bAMYBOGjvjIWCHxzS1RD-124">
          <mxGeometry width="30" height="30" as="geometry" />
        </mxCell>
        <mxCell id="bAMYBOGjvjIWCHxzS1RD-126" value="RUN_ID" style="shape=partialRectangle;overflow=hidden;connectable=0;fillColor=none;top=0;left=0;bottom=0;right=0;align=left;spacingLeft=6;fontStyle=5;" vertex="1" parent="bAMYBOGjvjIWCHxzS1RD-124">
          <mxGeometry x="30" width="160" height="30" as="geometry" />
        </mxCell>
        <mxCell id="bAMYBOGjvjIWCHxzS1RD-127" value="" style="shape=partialRectangle;collapsible=0;dropTarget=0;pointerEvents=0;fillColor=none;points=[[0,0.5],[1,0.5]];portConstraint=eastwest;top=0;left=0;right=0;bottom=0;" vertex="1" parent="bAMYBOGjvjIWCHxzS1RD-123">
          <mxGeometry y="60" width="190" height="300" as="geometry" />
        </mxCell>
        <mxCell id="bAMYBOGjvjIWCHxzS1RD-128" value="FK1&#xa;&#xa;&#xa;&#xa;&#xa;&#xa;&#xa;&#xa;&#xa;&#xa;&#xa;&#xa;&#xa;&#xa;&#xa;&#xa;&#xa;&#xa;&#xa;&#xa;FK2" style="shape=partialRectangle;overflow=hidden;connectable=0;fillColor=none;top=0;left=0;bottom=0;right=0;" vertex="1" parent="bAMYBOGjvjIWCHxzS1RD-127">
          <mxGeometry width="30" height="300" as="geometry" />
        </mxCell>
        <mxCell id="bAMYBOGjvjIWCHxzS1RD-129" value="MODEL_ID&#xa;&#xa;VERSION&#xa;&#xa;STEP_NUM&#xa;&#xa;STATUS&#xa;&#xa;REQUEST_PACKAGE&#xa;&#xa;MODEL_ZIP&#xa;&#xa;START_TIME&#xa;&#xa;END_TIME&#xa;&#xa;DESCRIPTION&#xa;&#xa;COMMENT&#xa;&#xa;CD_PIPELINE_RUN_ID" style="shape=partialRectangle;overflow=hidden;connectable=0;fillColor=none;top=0;left=0;bottom=0;right=0;align=left;spacingLeft=6;" vertex="1" parent="bAMYBOGjvjIWCHxzS1RD-127">
          <mxGeometry x="30" width="160" height="300" as="geometry" />
        </mxCell>
        <mxCell id="bAMYBOGjvjIWCHxzS1RD-130" value="CD_MODEL RUN_SUB INFO" style="shape=table;startSize=30;container=1;collapsible=1;childLayout=tableLayout;fixedRows=1;rowLines=0;fontStyle=1;align=center;resizeLast=1;" vertex="1" parent="1">
          <mxGeometry x="120" y="420" width="180" height="365" as="geometry" />
        </mxCell>
        <mxCell id="bAMYBOGjvjIWCHxzS1RD-131" value="" style="shape=partialRectangle;collapsible=0;dropTarget=0;pointerEvents=0;fillColor=none;points=[[0,0.5],[1,0.5]];portConstraint=eastwest;top=0;left=0;right=0;bottom=1;" vertex="1" parent="bAMYBOGjvjIWCHxzS1RD-130">
          <mxGeometry y="30" width="180" height="30" as="geometry" />
        </mxCell>
        <mxCell id="bAMYBOGjvjIWCHxzS1RD-132" value="PK" style="shape=partialRectangle;overflow=hidden;connectable=0;fillColor=none;top=0;left=0;bottom=0;right=0;fontStyle=1;" vertex="1" parent="bAMYBOGjvjIWCHxzS1RD-131">
          <mxGeometry width="30" height="30" as="geometry" />
        </mxCell>
        <mxCell id="bAMYBOGjvjIWCHxzS1RD-133" value="STEP_ID" style="shape=partialRectangle;overflow=hidden;connectable=0;fillColor=none;top=0;left=0;bottom=0;right=0;align=left;spacingLeft=6;fontStyle=5;" vertex="1" parent="bAMYBOGjvjIWCHxzS1RD-131">
          <mxGeometry x="30" width="150" height="30" as="geometry" />
        </mxCell>
        <mxCell id="bAMYBOGjvjIWCHxzS1RD-134" value="" style="shape=partialRectangle;collapsible=0;dropTarget=0;pointerEvents=0;fillColor=none;points=[[0,0.5],[1,0.5]];portConstraint=eastwest;top=0;left=0;right=0;bottom=0;" vertex="1" parent="bAMYBOGjvjIWCHxzS1RD-130">
          <mxGeometry y="60" width="180" height="305" as="geometry" />
        </mxCell>
        <mxCell id="bAMYBOGjvjIWCHxzS1RD-135" value="FK1&#xa;&#xa;FK2&#xa;&#xa;&#xa;&#xa;&#xa;&#xa;&#xa;&#xa;&#xa;&#xa;&#xa;&#xa;&#xa;&#xa;&#xa;&#xa;&#xa;&#xa;" style="shape=partialRectangle;overflow=hidden;connectable=0;fillColor=none;top=0;left=0;bottom=0;right=0;" vertex="1" parent="bAMYBOGjvjIWCHxzS1RD-134">
          <mxGeometry width="30" height="305" as="geometry" />
        </mxCell>
        <mxCell id="bAMYBOGjvjIWCHxzS1RD-136" value="RUN_ID&#xa;&#xa;MODEL_ID&#xa;&#xa;STEP_NAME&#xa;&#xa;STEP_CLASS&#xa;&#xa;STEP_ORDER&#xa;&#xa;MAIN_PY_GITHUB&#xa;&#xa;MAIN_PY_STORAGE&#xa;&#xa;STATUS&#xa;&#xa;LOGS_PATH&#xa;&#xa;START_TIME&#xa;&#xa;END_TIME" style="shape=partialRectangle;overflow=hidden;connectable=0;fillColor=none;top=0;left=0;bottom=0;right=0;align=left;spacingLeft=6;" vertex="1" parent="bAMYBOGjvjIWCHxzS1RD-134">
          <mxGeometry x="30" width="150" height="305" as="geometry" />
        </mxCell>
        <mxCell id="bAMYBOGjvjIWCHxzS1RD-138" value="" style="edgeStyle=entityRelationEdgeStyle;fontSize=12;html=1;endArrow=ERzeroToMany;startArrow=ERmandOne;fontColor=#000000;exitX=1;exitY=0.5;exitDx=0;exitDy=0;entryX=-0.018;entryY=0.05;entryDx=0;entryDy=0;entryPerimeter=0;" edge="1" parent="1" source="bAMYBOGjvjIWCHxzS1RD-9" target="bAMYBOGjvjIWCHxzS1RD-23">
          <mxGeometry width="100" height="100" relative="1" as="geometry">
            <mxPoint x="670" y="210" as="sourcePoint" />
            <mxPoint x="730" y="100" as="targetPoint" />
          </mxGeometry>
        </mxCell>
        <mxCell id="bAMYBOGjvjIWCHxzS1RD-140" value="" style="edgeStyle=entityRelationEdgeStyle;fontSize=12;html=1;endArrow=ERzeroToMany;startArrow=ERmandOne;fontColor=#000000;entryX=1.013;entryY=0.269;entryDx=0;entryDy=0;entryPerimeter=0;" edge="1" parent="1" source="C-vyLk0tnHw3VtMMgP7b-24" target="bAMYBOGjvjIWCHxzS1RD-12">
          <mxGeometry width="100" height="100" relative="1" as="geometry">
            <mxPoint x="430" y="240" as="sourcePoint" />
            <mxPoint x="420" y="140" as="targetPoint" />
          </mxGeometry>
        </mxCell>
        <mxCell id="bAMYBOGjvjIWCHxzS1RD-144" value="" style="edgeStyle=entityRelationEdgeStyle;fontSize=12;html=1;endArrow=ERzeroToMany;startArrow=ERmandOne;fontColor=#000000;entryX=1.019;entryY=0.138;entryDx=0;entryDy=0;entryPerimeter=0;" edge="1" parent="1" source="bAMYBOGjvjIWCHxzS1RD-9" target="bAMYBOGjvjIWCHxzS1RD-43">
          <mxGeometry width="100" height="100" relative="1" as="geometry">
            <mxPoint x="510" y="155" as="sourcePoint" />
            <mxPoint x="410" y="-309" as="targetPoint" />
          </mxGeometry>
        </mxCell>
        <mxCell id="bAMYBOGjvjIWCHxzS1RD-146" value="" style="edgeStyle=entityRelationEdgeStyle;fontSize=12;html=1;endArrow=ERzeroToMany;startArrow=ERmandOne;fontColor=#000000;entryX=0;entryY=0.08;entryDx=0;entryDy=0;entryPerimeter=0;exitX=1;exitY=0.5;exitDx=0;exitDy=0;" edge="1" parent="1" source="bAMYBOGjvjIWCHxzS1RD-9" target="bAMYBOGjvjIWCHxzS1RD-33">
          <mxGeometry width="100" height="100" relative="1" as="geometry">
            <mxPoint x="310" y="-90" as="sourcePoint" />
            <mxPoint x="340" y="230" as="targetPoint" />
          </mxGeometry>
        </mxCell>
        <mxCell id="bAMYBOGjvjIWCHxzS1RD-148" value="" style="edgeStyle=entityRelationEdgeStyle;fontSize=12;html=1;endArrow=ERzeroToMany;startArrow=ERmandOne;fontColor=#000000;exitX=1;exitY=0.5;exitDx=0;exitDy=0;entryX=0;entryY=0.038;entryDx=0;entryDy=0;entryPerimeter=0;" edge="1" parent="1" source="bAMYBOGjvjIWCHxzS1RD-30" target="bAMYBOGjvjIWCHxzS1RD-120">
          <mxGeometry width="100" height="100" relative="1" as="geometry">
            <mxPoint x="840" y="650" as="sourcePoint" />
            <mxPoint x="940" y="550" as="targetPoint" />
          </mxGeometry>
        </mxCell>
        <mxCell id="bAMYBOGjvjIWCHxzS1RD-149" value="" style="edgeStyle=entityRelationEdgeStyle;fontSize=12;html=1;endArrow=ERzeroToMany;startArrow=ERmandOne;fontColor=#000000;exitX=1;exitY=0.5;exitDx=0;exitDy=0;entryX=-0.02;entryY=0.048;entryDx=0;entryDy=0;entryPerimeter=0;" edge="1" parent="1" source="bAMYBOGjvjIWCHxzS1RD-117" target="bAMYBOGjvjIWCHxzS1RD-113">
          <mxGeometry width="100" height="100" relative="1" as="geometry">
            <mxPoint x="930" y="630" as="sourcePoint" />
            <mxPoint x="990" y="310" as="targetPoint" />
          </mxGeometry>
        </mxCell>
        <mxCell id="bAMYBOGjvjIWCHxzS1RD-150" value="" style="edgeStyle=entityRelationEdgeStyle;fontSize=12;html=1;endArrow=ERzeroToMany;startArrow=ERmandOne;fontColor=#000000;entryX=0;entryY=0.144;entryDx=0;entryDy=0;entryPerimeter=0;exitX=1;exitY=0.5;exitDx=0;exitDy=0;" edge="1" parent="1" source="bAMYBOGjvjIWCHxzS1RD-30" target="bAMYBOGjvjIWCHxzS1RD-113">
          <mxGeometry width="100" height="100" relative="1" as="geometry">
            <mxPoint x="830" y="420" as="sourcePoint" />
            <mxPoint x="1052" y="490" as="targetPoint" />
          </mxGeometry>
        </mxCell>
        <mxCell id="bAMYBOGjvjIWCHxzS1RD-151" value="" style="edgeStyle=entityRelationEdgeStyle;fontSize=12;html=1;endArrow=ERzeroToMany;startArrow=ERmandOne;fontColor=#000000;entryX=1.008;entryY=0.161;entryDx=0;entryDy=0;entryPerimeter=0;exitX=0;exitY=0.5;exitDx=0;exitDy=0;" edge="1" parent="1" source="bAMYBOGjvjIWCHxzS1RD-30" target="bAMYBOGjvjIWCHxzS1RD-73">
          <mxGeometry width="100" height="100" relative="1" as="geometry">
            <mxPoint x="710" y="310" as="sourcePoint" />
            <mxPoint x="482" y="500" as="targetPoint" />
          </mxGeometry>
        </mxCell>
        <mxCell id="bAMYBOGjvjIWCHxzS1RD-152" value="" style="edgeStyle=entityRelationEdgeStyle;fontSize=12;html=1;endArrow=ERzeroToMany;startArrow=ERmandOne;fontColor=#000000;entryX=-0.007;entryY=0.038;entryDx=0;entryDy=0;entryPerimeter=0;exitX=1;exitY=0.5;exitDx=0;exitDy=0;" edge="1" parent="1" source="bAMYBOGjvjIWCHxzS1RD-70" target="bAMYBOGjvjIWCHxzS1RD-127">
          <mxGeometry width="100" height="100" relative="1" as="geometry">
            <mxPoint x="110" y="290" as="sourcePoint" />
            <mxPoint x="660" y="710" as="targetPoint" />
          </mxGeometry>
        </mxCell>
        <mxCell id="bAMYBOGjvjIWCHxzS1RD-153" value="" style="edgeStyle=entityRelationEdgeStyle;fontSize=12;html=1;endArrow=ERzeroToMany;startArrow=ERmandOne;fontColor=#000000;exitX=0;exitY=0.5;exitDx=0;exitDy=0;entryX=1.015;entryY=0.039;entryDx=0;entryDy=0;entryPerimeter=0;" edge="1" parent="1" source="bAMYBOGjvjIWCHxzS1RD-124" target="bAMYBOGjvjIWCHxzS1RD-134">
          <mxGeometry width="100" height="100" relative="1" as="geometry">
            <mxPoint x="290" y="720" as="sourcePoint" />
            <mxPoint x="390" y="620" as="targetPoint" />
          </mxGeometry>
        </mxCell>
        <mxCell id="bAMYBOGjvjIWCHxzS1RD-155" value="" style="edgeStyle=entityRelationEdgeStyle;fontSize=12;html=1;endArrow=ERzeroToMany;startArrow=ERmandOne;fontColor=#000000;entryX=-0.019;entryY=0.144;entryDx=0;entryDy=0;entryPerimeter=0;rounded=1;" edge="1" parent="1" source="bAMYBOGjvjIWCHxzS1RD-70" target="bAMYBOGjvjIWCHxzS1RD-134">
          <mxGeometry width="100" height="100" relative="1" as="geometry">
            <mxPoint x="590" y="730" as="sourcePoint" />
            <mxPoint x="541" y="751" as="targetPoint" />
          </mxGeometry>
        </mxCell>
        <mxCell id="bAMYBOGjvjIWCHxzS1RD-158" value="" style="edgeStyle=entityRelationEdgeStyle;fontSize=12;html=1;endArrow=ERzeroToMany;startArrow=ERmandOne;fontColor=#000000;entryX=1.033;entryY=0.971;entryDx=0;entryDy=0;entryPerimeter=0;exitX=0;exitY=0.5;exitDx=0;exitDy=0;" edge="1" parent="1" source="bAMYBOGjvjIWCHxzS1RD-20" target="bAMYBOGjvjIWCHxzS1RD-120">
          <mxGeometry width="100" height="100" relative="1" as="geometry">
            <mxPoint x="960" as="sourcePoint" />
            <mxPoint x="1060" y="-100" as="targetPoint" />
          </mxGeometry>
        </mxCell>
        <mxCell id="bAMYBOGjvjIWCHxzS1RD-159" value="" style="edgeStyle=entityRelationEdgeStyle;fontSize=12;html=1;endArrow=ERzeroToMany;startArrow=ERmandOne;fontColor=#000000;exitX=0;exitY=0.5;exitDx=0;exitDy=0;entryX=1.018;entryY=0.971;entryDx=0;entryDy=0;entryPerimeter=0;" edge="1" parent="1" source="bAMYBOGjvjIWCHxzS1RD-117" target="bAMYBOGjvjIWCHxzS1RD-127">
          <mxGeometry width="100" height="100" relative="1" as="geometry">
            <mxPoint x="620" y="550" as="sourcePoint" />
            <mxPoint x="90" y="950" as="targetPoint" />
          </mxGeometry>
        </mxCell>
        <mxCell id="C-vyLk0tnHw3VtMMgP7b-23" value="USER_REG_INFO" style="shape=table;startSize=30;container=1;collapsible=1;childLayout=tableLayout;fixedRows=1;rowLines=0;fontStyle=1;align=center;resizeLast=1;" parent="1" vertex="1">
          <mxGeometry x="560" y="-20" width="190" height="190" as="geometry" />
        </mxCell>
        <mxCell id="C-vyLk0tnHw3VtMMgP7b-24" value="" style="shape=partialRectangle;collapsible=0;dropTarget=0;pointerEvents=0;fillColor=none;points=[[0,0.5],[1,0.5]];portConstraint=eastwest;top=0;left=0;right=0;bottom=1;" parent="C-vyLk0tnHw3VtMMgP7b-23" vertex="1">
          <mxGeometry y="30" width="190" height="30" as="geometry" />
        </mxCell>
        <mxCell id="C-vyLk0tnHw3VtMMgP7b-25" value="PK" style="shape=partialRectangle;overflow=hidden;connectable=0;fillColor=none;top=0;left=0;bottom=0;right=0;fontStyle=1;" parent="C-vyLk0tnHw3VtMMgP7b-24" vertex="1">
          <mxGeometry width="30" height="30" as="geometry" />
        </mxCell>
        <mxCell id="C-vyLk0tnHw3VtMMgP7b-26" value="USER_ID" style="shape=partialRectangle;overflow=hidden;connectable=0;fillColor=none;top=0;left=0;bottom=0;right=0;align=left;spacingLeft=6;fontStyle=5;" parent="C-vyLk0tnHw3VtMMgP7b-24" vertex="1">
          <mxGeometry x="30" width="160" height="30" as="geometry" />
        </mxCell>
        <mxCell id="C-vyLk0tnHw3VtMMgP7b-27" value="" style="shape=partialRectangle;collapsible=0;dropTarget=0;pointerEvents=0;fillColor=none;points=[[0,0.5],[1,0.5]];portConstraint=eastwest;top=0;left=0;right=0;bottom=0;" parent="C-vyLk0tnHw3VtMMgP7b-23" vertex="1">
          <mxGeometry y="60" width="190" height="130" as="geometry" />
        </mxCell>
        <mxCell id="C-vyLk0tnHw3VtMMgP7b-28" value="FK1&#xa;&#xa;&#xa;&#xa;&#xa;&#xa;&#xa;&#xa;" style="shape=partialRectangle;overflow=hidden;connectable=0;fillColor=none;top=0;left=0;bottom=0;right=0;" parent="C-vyLk0tnHw3VtMMgP7b-27" vertex="1">
          <mxGeometry width="30" height="130" as="geometry" />
        </mxCell>
        <mxCell id="C-vyLk0tnHw3VtMMgP7b-29" value="TEAM_USECASE_NAME&#xa;&#xa;STAFF_ID&#xa;&#xa;STAFF_EMAIL&#xa;&#xa;GIT_REPO_URL&#xa;&#xa;LINE_MANAGER" style="shape=partialRectangle;overflow=hidden;connectable=0;fillColor=none;top=0;left=0;bottom=0;right=0;align=left;spacingLeft=6;" parent="C-vyLk0tnHw3VtMMgP7b-27" vertex="1">
          <mxGeometry x="30" width="160" height="130" as="geometry" />
        </mxCell>
        <mxCell id="bAMYBOGjvjIWCHxzS1RD-163" value="" style="edgeStyle=entityRelationEdgeStyle;fontSize=12;html=1;endArrow=ERzeroToMany;startArrow=ERmandOne;fontColor=#000000;exitX=0;exitY=0.5;exitDx=0;exitDy=0;entryX=1.002;entryY=0.056;entryDx=0;entryDy=0;entryPerimeter=0;" edge="1" parent="1" source="bAMYBOGjvjIWCHxzS1RD-20" target="bAMYBOGjvjIWCHxzS1RD-43">
          <mxGeometry width="100" height="100" relative="1" as="geometry">
            <mxPoint x="460" y="80" as="sourcePoint" />
            <mxPoint x="560" y="-20" as="targetPoint" />
          </mxGeometry>
        </mxCell>
      </root>
    </mxGraphModel>
  </diagram>
</mxfile>
